{"title":"The.Forger.2014.WEBRip.XviD.MP3-RARBG","uid":11795477,"size":1247824613,"categoryP":"video","categoryS":"movies","magnet":"?xt=urn:btih:06ce9000debd81a59f77c3fc4f3bb4a2fe0fd375&amp;dn=The.Forger.2014.WEBRip.XviD.MP3-RARBG&amp;tr=udp%3A%2F%2Ftracker.openbittorrent.com%3A80&amp;tr=udp%3A%2F%2Fopen.demonii.com%3A1337&amp;tr=udp%3A%2F%2Ftracker.coppersurfer.tk%3A6969&amp;tr=udp%3A%2F%2Fexodus.desync.com%3A6969","seeders":10,"leechers":0,"uploader":"vickey1992","files":4,"time":1428107928,"description":" &lt;a href=&quot;https://rarbg.com/&quot; rel=&quot;nofollow&quot; target=&quot;_NEW&quot;&gt;https://rarbg.com/&lt;/a&gt;\n\nInfo:\n\n[mediainfo]\n\nFormat : AVI\nFormat/Info : Audio Video Interleave\nFile size : 1.16 GiB\nDuration : 1h 35mn\nOverall bit rate : 1 747 Kbps\nWriting application : RARBG.COM - The.Forger.2014.WEBRip.XviD.MP3-RARBG\nWriting library : VirtualDub build 35491/release\nComment : RARBG.COM - The.Forger.2014.WEBRip.XviD.MP3-RARBG\n\nVideo\nID : 0\nFormat : MPEG-4 Visual\nFormat profile : Simple@L5\nFormat settings, BVOP : No\nFormat settings, QPel : No\nFormat settings, GMC : No warppoints\nFormat settings, Matrix : Default (H.263)\nCodec ID : XVID\nCodec ID/Hint : XviD\nDuration : 1h 35mn\nBit rate : 1 542 Kbps\nWidth : 720 pixels\nHeight : 400 pixels\nDisplay aspect ratio : 16:9\nFrame rate : 25.000 fps\nColor space : YUV\nChroma subsampling : 4:2:0\nBit depth : 8 bits\nScan type : Progressive\nCompression mode : Lossy\nBits/(Pixel*Frame) : 0.214\nStream size : 1.03 GiB (88%)\nWriting library : Lavc56.13.100\n\nAudio\nID : 1\nFormat : MPEG Audio\nFormat version : Version 1\nFormat profile : Layer 3\nMode : Joint stereo\nMode extension : MS Stereo\nCodec ID : 55\nCodec ID/Hint : MP3\nDuration : 1h 35mn\nBit rate mode : Constant\nBit rate : 192 Kbps\nChannel(s) : 2 channels\nSampling rate : 44.1 KHz\nCompression mode : Lossy\nStream size : 131 MiB (11%)\nAlignment : Aligned on interleaves\nInterleave, duration : 26 ms (0.65 video frame)\nInterleave, preload duration : 522 ms\nWriting library : LAME\n\n\n\n\n\n[/mediainfo]\n\nNotes:\nGreetz to all! :)","torrent":{"xt":"urn:btih:06ce9000debd81a59f77c3fc4f3bb4a2fe0fd375","amp;dn":"The.Forger.2014.WEBRip.XviD.MP3-RARBG","amp;tr":["udp%3A%2F%2Ftracker.openbittorrent.com%3A80","udp%3A%2F%2Fopen.demonii.com%3A1337","udp%3A%2F%2Ftracker.coppersurfer.tk%3A6969","udp%3A%2F%2Fexodus.desync.com%3A6969"],"infoHash":"06ce9000debd81a59f77c3fc4f3bb4a2fe0fd375","infoHashBuffer":{"type":"Buffer","data":[6,206,144,0,222,189,129,165,159,119,195,252,79,59,180,162,254,15,211,117]},"announce":[],"urlList":[]}}